<mxfile host="app.diagrams.net" agent="Mozilla/5.0 (Windows NT 10.0; Win64; x64) AppleWebKit/537.36 (KHTML, like Gecko) Chrome/131.0.0.0 Safari/537.36 Edg/131.0.0.0" version="25.0.1">
  <diagram name="Seite-1" id="n0hpo-4fA8q_3o40BN-G">
    <mxGraphModel dx="4577" dy="2738" grid="1" gridSize="10" guides="1" tooltips="1" connect="1" arrows="1" fold="1" page="1" pageScale="1" pageWidth="827" pageHeight="1169" math="0" shadow="0">
      <root>
        <mxCell id="0" />
        <mxCell id="1" parent="0" />
        <mxCell id="f-mSSSjeGKOmOlXwNIEi-3" style="edgeStyle=orthogonalEdgeStyle;rounded=0;orthogonalLoop=1;jettySize=auto;html=1;exitX=1;exitY=0.5;exitDx=0;exitDy=0;exitPerimeter=0;entryX=1;entryY=0.5;entryDx=0;entryDy=0;fontSize=70;strokeWidth=6;endSize=19;" parent="1" source="f-mSSSjeGKOmOlXwNIEi-1" target="f-mSSSjeGKOmOlXwNIEi-2" edge="1">
          <mxGeometry relative="1" as="geometry" />
        </mxCell>
        <mxCell id="f-mSSSjeGKOmOlXwNIEi-4" value="no" style="edgeLabel;html=1;align=center;verticalAlign=middle;resizable=0;points=[];fontSize=70;" parent="f-mSSSjeGKOmOlXwNIEi-3" vertex="1" connectable="0">
          <mxGeometry x="-0.2762" relative="1" as="geometry">
            <mxPoint x="20" y="-4" as="offset" />
          </mxGeometry>
        </mxCell>
        <mxCell id="f-mSSSjeGKOmOlXwNIEi-6" style="edgeStyle=orthogonalEdgeStyle;rounded=0;orthogonalLoop=1;jettySize=auto;html=1;exitX=0.5;exitY=1;exitDx=0;exitDy=0;exitPerimeter=0;entryX=0.5;entryY=0;entryDx=0;entryDy=0;fontSize=70;strokeWidth=6;endSize=19;" parent="1" source="f-mSSSjeGKOmOlXwNIEi-1" target="f-mSSSjeGKOmOlXwNIEi-12" edge="1">
          <mxGeometry relative="1" as="geometry">
            <mxPoint x="380" y="360" as="targetPoint" />
          </mxGeometry>
        </mxCell>
        <mxCell id="f-mSSSjeGKOmOlXwNIEi-7" value="yes" style="edgeLabel;html=1;align=center;verticalAlign=middle;resizable=0;points=[];fontSize=70;" parent="f-mSSSjeGKOmOlXwNIEi-6" vertex="1" connectable="0">
          <mxGeometry x="-0.1" y="4" relative="1" as="geometry">
            <mxPoint x="43" as="offset" />
          </mxGeometry>
        </mxCell>
        <mxCell id="f-mSSSjeGKOmOlXwNIEi-1" value="Does project fulfill criteria?" style="strokeWidth=2;html=1;shape=mxgraph.flowchart.decision;whiteSpace=wrap;fontSize=70;" parent="1" vertex="1">
          <mxGeometry x="-70" y="-40" width="1049" height="360" as="geometry" />
        </mxCell>
        <mxCell id="f-mSSSjeGKOmOlXwNIEi-2" value="Choose project" style="rounded=0;whiteSpace=wrap;html=1;fontSize=70;" parent="1" vertex="1">
          <mxGeometry x="212" y="-400" width="490" height="100" as="geometry" />
        </mxCell>
        <mxCell id="f-mSSSjeGKOmOlXwNIEi-9" style="edgeStyle=orthogonalEdgeStyle;rounded=0;orthogonalLoop=1;jettySize=auto;html=1;exitX=1;exitY=0.5;exitDx=0;exitDy=0;entryX=0;entryY=0.5;entryDx=0;entryDy=0;fontSize=70;strokeWidth=6;endSize=19;" parent="1" source="f-mSSSjeGKOmOlXwNIEi-18" target="f-mSSSjeGKOmOlXwNIEi-8" edge="1">
          <mxGeometry relative="1" as="geometry">
            <mxPoint x="455" y="435" as="sourcePoint" />
          </mxGeometry>
        </mxCell>
        <mxCell id="f-mSSSjeGKOmOlXwNIEi-10" value="Full refactoring by LLM" style="edgeLabel;html=1;align=center;verticalAlign=middle;resizable=0;points=[];fontSize=70;" parent="f-mSSSjeGKOmOlXwNIEi-9" vertex="1" connectable="0">
          <mxGeometry x="-0.3217" y="-1" relative="1" as="geometry">
            <mxPoint x="102" y="-86" as="offset" />
          </mxGeometry>
        </mxCell>
        <mxCell id="f-mSSSjeGKOmOlXwNIEi-28" style="edgeStyle=orthogonalEdgeStyle;rounded=0;orthogonalLoop=1;jettySize=auto;html=1;exitX=0.5;exitY=1;exitDx=0;exitDy=0;entryX=0.5;entryY=0;entryDx=0;entryDy=0;fontSize=70;strokeWidth=6;endSize=19;" parent="1" source="f-mSSSjeGKOmOlXwNIEi-8" target="f-mSSSjeGKOmOlXwNIEi-27" edge="1">
          <mxGeometry relative="1" as="geometry" />
        </mxCell>
        <mxCell id="f-mSSSjeGKOmOlXwNIEi-8" value="Create 10 proposals" style="rounded=0;whiteSpace=wrap;html=1;fontSize=70;" parent="1" vertex="1">
          <mxGeometry x="1990" y="1553" width="650" height="100" as="geometry" />
        </mxCell>
        <mxCell id="f-mSSSjeGKOmOlXwNIEi-14" style="edgeStyle=orthogonalEdgeStyle;rounded=0;orthogonalLoop=1;jettySize=auto;html=1;exitX=0.5;exitY=1;exitDx=0;exitDy=0;entryX=0.5;entryY=0;entryDx=0;entryDy=0;fontSize=70;strokeWidth=6;endSize=19;" parent="1" source="f-mSSSjeGKOmOlXwNIEi-12" target="f-mSSSjeGKOmOlXwNIEi-13" edge="1">
          <mxGeometry relative="1" as="geometry" />
        </mxCell>
        <mxCell id="f-mSSSjeGKOmOlXwNIEi-12" value="Choose data clump" style="rounded=0;whiteSpace=wrap;html=1;fontSize=70;" parent="1" vertex="1">
          <mxGeometry x="243.5" y="535" width="630" height="100" as="geometry" />
        </mxCell>
        <mxCell id="f-mSSSjeGKOmOlXwNIEi-15" style="edgeStyle=orthogonalEdgeStyle;rounded=0;orthogonalLoop=1;jettySize=auto;html=1;exitX=1;exitY=0.5;exitDx=0;exitDy=0;entryX=1;entryY=0.5;entryDx=0;entryDy=0;fontSize=70;strokeWidth=6;endSize=19;" parent="1" source="f-mSSSjeGKOmOlXwNIEi-13" target="f-mSSSjeGKOmOlXwNIEi-12" edge="1">
          <mxGeometry relative="1" as="geometry" />
        </mxCell>
        <mxCell id="f-mSSSjeGKOmOlXwNIEi-16" value="no" style="edgeLabel;html=1;align=center;verticalAlign=middle;resizable=0;points=[];fontSize=70;" parent="f-mSSSjeGKOmOlXwNIEi-15" vertex="1" connectable="0">
          <mxGeometry x="-0.2697" y="1" relative="1" as="geometry">
            <mxPoint x="43" as="offset" />
          </mxGeometry>
        </mxCell>
        <mxCell id="f-mSSSjeGKOmOlXwNIEi-20" style="edgeStyle=orthogonalEdgeStyle;rounded=0;orthogonalLoop=1;jettySize=auto;html=1;exitX=0.5;exitY=1;exitDx=0;exitDy=0;entryX=0.5;entryY=0;entryDx=0;entryDy=0;fontSize=70;strokeWidth=6;endSize=19;" parent="1" source="f-mSSSjeGKOmOlXwNIEi-13" target="f-mSSSjeGKOmOlXwNIEi-18" edge="1">
          <mxGeometry relative="1" as="geometry" />
        </mxCell>
        <mxCell id="f-mSSSjeGKOmOlXwNIEi-23" value="yes" style="edgeLabel;html=1;align=center;verticalAlign=middle;resizable=0;points=[];fontSize=70;" parent="f-mSSSjeGKOmOlXwNIEi-20" vertex="1" connectable="0">
          <mxGeometry x="-0.2537" y="-1" relative="1" as="geometry">
            <mxPoint x="68" y="3" as="offset" />
          </mxGeometry>
        </mxCell>
        <mxCell id="f-mSSSjeGKOmOlXwNIEi-13" value="Data clump suitable for refactoring?" style="rhombus;whiteSpace=wrap;html=1;fontSize=70;" parent="1" vertex="1">
          <mxGeometry x="-112" y="835" width="1341" height="415" as="geometry" />
        </mxCell>
        <mxCell id="f-mSSSjeGKOmOlXwNIEi-22" style="edgeStyle=orthogonalEdgeStyle;rounded=0;orthogonalLoop=1;jettySize=auto;html=1;entryX=0;entryY=0.5;entryDx=0;entryDy=0;fontSize=70;strokeWidth=6;endSize=19;" parent="1" source="f-mSSSjeGKOmOlXwNIEi-21" target="f-mSSSjeGKOmOlXwNIEi-2" edge="1">
          <mxGeometry relative="1" as="geometry" />
        </mxCell>
        <mxCell id="f-mSSSjeGKOmOlXwNIEi-21" value="Start" style="rounded=1;whiteSpace=wrap;html=1;fontSize=70;" parent="1" vertex="1">
          <mxGeometry x="-320" y="-420" width="265" height="135" as="geometry" />
        </mxCell>
        <mxCell id="f-mSSSjeGKOmOlXwNIEi-40" style="edgeStyle=orthogonalEdgeStyle;rounded=0;orthogonalLoop=1;jettySize=auto;html=1;exitX=0.5;exitY=1;exitDx=0;exitDy=0;entryX=0.5;entryY=0;entryDx=0;entryDy=0;fontSize=70;strokeWidth=6;endSize=19;" parent="1" source="f-mSSSjeGKOmOlXwNIEi-24" target="f-mSSSjeGKOmOlXwNIEi-29" edge="1">
          <mxGeometry relative="1" as="geometry">
            <mxPoint x="500" y="1690" as="targetPoint" />
          </mxGeometry>
        </mxCell>
        <mxCell id="f-mSSSjeGKOmOlXwNIEi-24" value="Create one proposal" style="rounded=0;whiteSpace=wrap;html=1;fontSize=70;" parent="1" vertex="1">
          <mxGeometry x="-1480" y="1555" width="660" height="100" as="geometry" />
        </mxCell>
        <mxCell id="f-mSSSjeGKOmOlXwNIEi-32" style="edgeStyle=orthogonalEdgeStyle;rounded=0;orthogonalLoop=1;jettySize=auto;html=1;exitX=0.5;exitY=1;exitDx=0;exitDy=0;entryX=0.5;entryY=0;entryDx=0;entryDy=0;fontSize=70;strokeWidth=6;endSize=19;" parent="1" source="f-mSSSjeGKOmOlXwNIEi-27" target="f-mSSSjeGKOmOlXwNIEi-29" edge="1">
          <mxGeometry relative="1" as="geometry" />
        </mxCell>
        <mxCell id="f-mSSSjeGKOmOlXwNIEi-27" value="Choose proposal" style="rounded=0;whiteSpace=wrap;html=1;fontSize=70;" parent="1" vertex="1">
          <mxGeometry x="2040" y="1780" width="550" height="100" as="geometry" />
        </mxCell>
        <mxCell id="f-mSSSjeGKOmOlXwNIEi-33" style="edgeStyle=orthogonalEdgeStyle;rounded=0;orthogonalLoop=1;jettySize=auto;html=1;exitX=0.5;exitY=1;exitDx=0;exitDy=0;entryX=0.5;entryY=0;entryDx=0;entryDy=0;fontSize=70;strokeWidth=6;endSize=19;" parent="1" source="f-mSSSjeGKOmOlXwNIEi-29" target="f-mSSSjeGKOmOlXwNIEi-34" edge="1">
          <mxGeometry relative="1" as="geometry">
            <mxPoint x="401" y="1050" as="targetPoint" />
          </mxGeometry>
        </mxCell>
        <mxCell id="f-mSSSjeGKOmOlXwNIEi-29" value="Manual refinement" style="rounded=0;whiteSpace=wrap;html=1;fontSize=70;" parent="1" vertex="1">
          <mxGeometry x="155" y="2070" width="600" height="100" as="geometry" />
        </mxCell>
        <mxCell id="f-mSSSjeGKOmOlXwNIEi-34" value="Create PR" style="rounded=1;whiteSpace=wrap;html=1;fontSize=70;" parent="1" vertex="1">
          <mxGeometry x="280" y="2460" width="350" height="100" as="geometry" />
        </mxCell>
        <mxCell id="f-mSSSjeGKOmOlXwNIEi-36" style="edgeStyle=orthogonalEdgeStyle;rounded=0;orthogonalLoop=1;jettySize=auto;html=1;exitX=0.5;exitY=1;exitDx=0;exitDy=0;entryX=0.5;entryY=0;entryDx=0;entryDy=0;entryPerimeter=0;fontSize=70;strokeWidth=6;endSize=19;" parent="1" source="f-mSSSjeGKOmOlXwNIEi-2" target="f-mSSSjeGKOmOlXwNIEi-1" edge="1">
          <mxGeometry relative="1" as="geometry" />
        </mxCell>
        <mxCell id="f-mSSSjeGKOmOlXwNIEi-38" style="edgeStyle=orthogonalEdgeStyle;rounded=0;orthogonalLoop=1;jettySize=auto;html=1;exitX=0;exitY=0.5;exitDx=0;exitDy=0;entryX=1;entryY=0.5;entryDx=0;entryDy=0;fontSize=70;strokeWidth=6;endSize=19;" parent="1" source="f-mSSSjeGKOmOlXwNIEi-18" target="f-mSSSjeGKOmOlXwNIEi-24" edge="1">
          <mxGeometry relative="1" as="geometry" />
        </mxCell>
        <mxCell id="f-mSSSjeGKOmOlXwNIEi-39" value="&lt;div&gt;&lt;font&gt;Name suggestion only&lt;/font&gt;&lt;/div&gt;" style="edgeLabel;html=1;align=center;verticalAlign=middle;resizable=0;points=[];fontSize=70;" parent="f-mSSSjeGKOmOlXwNIEi-38" vertex="1" connectable="0">
          <mxGeometry x="0.2578" y="-6" relative="1" as="geometry">
            <mxPoint x="50" y="-54" as="offset" />
          </mxGeometry>
        </mxCell>
        <mxCell id="f-mSSSjeGKOmOlXwNIEi-18" value="Assign LLM inclusion&amp;nbsp;&lt;div&gt;category&lt;/div&gt;" style="rhombus;whiteSpace=wrap;html=1;fontSize=70;" parent="1" vertex="1">
          <mxGeometry x="39.5" y="1400" width="1039" height="410" as="geometry" />
        </mxCell>
      </root>
    </mxGraphModel>
  </diagram>
</mxfile>
